<?xml version="1.0" standalone="no"?>
<!DOCTYPE svg PUBLIC "-//W3C//DTD SVG 20010904//EN"
 "http://www.w3.org/TR/2001/REC-SVG-20010904/DTD/svg10.dtd">
<svg version="1.0" xmlns="http://www.w3.org/2000/svg"
 width="1024.000000pt" height="1024.000000pt" viewBox="0 0 1024.000000 1024.000000"
 preserveAspectRatio="xMidYMid meet">

<g transform="translate(0.000000,1024.000000) scale(0.100000,-0.100000)"
fill="#000000" stroke="none">
<path d="M4795 8979 c-153 -10 -298 -30 -485 -66 -84 -17 -172 -27 -235 -27
-83 -1 -108 -5 -147 -25 -44 -21 -100 -73 -109 -100 -3 -7 -51 -29 -107 -50
l-104 -38 -141 48 c-186 64 -314 83 -502 76 -453 -17 -851 -228 -1127 -597
-261 -349 -353 -820 -243 -1238 14 -52 25 -100 25 -108 0 -7 -29 -76 -63 -151
-124 -268 -200 -484 -248 -696 -19 -88 -21 -92 -89 -164 -177 -190 -217 -432
-114 -695 25 -65 34 -103 34 -147 0 -174 41 -512 96 -777 123 -606 439 -1226
892 -1751 329 -380 711 -676 1232 -951 83 -44 100 -57 135 -109 45 -65 142
-137 196 -146 19 -3 59 -1 90 5 54 11 59 10 165 -32 226 -89 288 -99 373 -55
27 13 50 22 52 20 14 -14 405 -66 569 -76 230 -14 478 2 754 47 90 15 170 24
177 20 8 -4 25 -13 39 -21 14 -8 51 -15 82 -15 55 0 104 15 362 110 42 15 53
16 92 4 51 -15 91 -10 147 18 53 27 125 94 148 140 15 30 34 46 92 74 642 323
1174 795 1569 1390 383 579 586 1156 658 1872 l10 103 68 67 c131 130 187 261
186 442 0 115 -23 203 -80 305 -38 69 -166 193 -243 235 l-63 35 -28 110 c-91
364 -307 833 -538 1170 -281 409 -659 789 -1047 1051 -237 160 -565 334 -820
434 -86 34 -120 53 -155 88 -71 70 -90 77 -215 78 -60 1 -141 8 -180 17 -114
26 -302 55 -425 67 -156 15 -576 21 -735 9z m825 -282 c195 -31 230 -38 230
-45 0 -3 -17 -26 -38 -51 -88 -107 -226 -327 -273 -435 -20 -47 -27 -56 -44
-51 -51 13 -155 16 -208 6 -32 -6 -87 -24 -122 -41 l-63 -30 -62 29 c-89 43
-181 57 -277 43 -43 -6 -78 -10 -79 -9 0 1 -28 55 -62 119 -64 123 -136 237
-222 352 -28 37 -49 70 -48 72 2 2 62 13 133 25 240 39 374 48 680 44 251 -2
312 -6 455 -28z m-1485 -100 c28 -28 81 -97 118 -153 70 -105 187 -328 187
-354 -1 -8 -10 3 -22 25 -44 86 -328 440 -328 410 1 -5 7 -19 15 -30 20 -26
89 -239 110 -340 14 -66 22 -85 48 -107 30 -27 30 -28 8 -28 -41 0 -90 31
-141 88 -28 31 -50 54 -50 51 0 -2 14 -51 30 -109 41 -143 40 -148 -21 -198
-29 -23 -57 -42 -64 -42 -15 0 -49 37 -68 75 -27 55 -38 116 -38 215 0 82 4
109 25 162 21 52 22 59 6 38 -62 -81 -121 -254 -123 -363 -2 -52 -3 -56 -12
-33 -16 37 -25 22 -26 -43 0 -31 -4 -65 -8 -76 -8 -19 -8 -19 -19 0 -10 18
-11 17 -12 -12 0 -49 43 -175 78 -227 l31 -46 -22 -11 c-12 -7 -45 -27 -74
-46 -29 -19 -56 -32 -61 -29 -14 8 -41 113 -52 199 -25 201 47 530 171 781 59
118 78 146 138 209 39 41 51 47 85 47 35 0 46 -6 91 -53z m2099 10 c85 -85
175 -272 235 -485 49 -176 64 -275 65 -427 1 -121 -2 -151 -23 -218 -24 -77
-24 -78 -45 -59 -12 10 -45 33 -74 52 -51 31 -52 33 -37 54 39 52 68 130 72
195 4 59 3 64 -10 48 -13 -15 -14 -6 -10 75 4 86 3 91 -11 74 -9 -11 -16 -25
-16 -32 0 -7 -3 -15 -7 -17 -5 -3 -8 32 -9 76 0 113 -49 267 -108 342 -14 18
-14 15 1 -25 23 -64 24 -246 0 -322 -16 -53 -67 -128 -87 -128 -5 0 -31 18
-59 40 -61 48 -62 57 -26 192 14 51 25 97 25 101 0 5 -22 -16 -50 -46 -53 -58
-94 -81 -132 -75 -23 4 -23 4 4 16 26 11 48 59 48 105 0 57 64 259 106 337
l24 45 -53 -55 c-89 -95 -193 -231 -258 -338 -34 -56 -64 -101 -66 -98 -2 2
12 39 31 82 78 179 211 390 304 487 39 40 52 47 84 47 32 0 46 -7 82 -43z
m-2994 -82 c111 -22 281 -85 348 -131 2 -1 -17 -62 -42 -135 -25 -74 -52 -168
-60 -209 -45 -221 -47 -468 -5 -621 l23 -86 -73 -79 c-102 -110 -214 -270
-273 -392 l-51 -103 52 -53 53 -53 -32 -63 c-59 -118 -73 -200 -49 -296 9 -34
9 -51 0 -67 -15 -30 -41 -135 -41 -167 0 -14 9 -42 19 -63 l19 -37 -76 0
c-119 0 -196 17 -254 57 -64 44 -156 88 -219 104 -40 10 -49 17 -49 34 0 12
-9 47 -19 78 -61 175 -247 333 -441 373 -41 8 -79 19 -86 24 -21 18 -86 170
-115 272 -51 177 -62 263 -56 448 6 189 22 271 78 416 96 246 294 476 528 614
234 137 543 188 821 135z m3528 -217 c467 -246 790 -505 1155 -926 15 -18 52
-65 82 -105 30 -40 63 -83 73 -97 75 -98 258 -390 288 -460 l11 -25 -90 4
c-119 4 -194 -11 -302 -64 -130 -63 -256 -184 -307 -297 l-17 -37 -98 5 c-70
4 -119 2 -172 -10 -79 -17 -227 -84 -256 -117 -10 -10 -23 -19 -29 -19 -6 0
-24 30 -41 67 -24 54 -29 81 -30 147 -2 89 -25 169 -73 246 l-28 45 62 55 c47
42 61 60 57 75 -9 38 -133 256 -180 318 -26 34 -80 100 -122 146 l-75 83 16
47 c34 96 43 166 41 316 -2 209 -38 407 -114 613 -10 29 -19 57 -19 62 0 14
34 -1 168 -72z m-1811 -403 c23 -7 63 -28 88 -45 l46 -32 47 31 c26 17 68 38
92 47 54 19 163 21 246 4 68 -14 216 -81 295 -133 59 -40 258 -208 258 -219 1
-3 -5 -8 -13 -10 -8 -2 31 -37 86 -78 110 -82 204 -177 274 -279 l46 -66 -88
85 c-171 164 -383 340 -591 488 -146 104 -295 162 -418 162 -82 0 -108 -9
-186 -66 l-46 -33 -22 23 c-31 33 -110 74 -158 82 -100 16 -280 -47 -445 -155
-138 -90 -400 -304 -618 -504 -58 -54 -109 -97 -113 -97 -4 0 11 23 35 52 88
106 206 222 306 300 56 45 101 86 100 92 -6 27 250 234 352 286 78 39 175 70
250 79 74 8 117 5 177 -14z m-114 -336 c25 -20 35 -35 29 -41 -6 -6 -17 -6
-30 1 -26 14 -32 14 -32 1 0 -5 7 -10 15 -10 9 0 18 -7 21 -15 3 -8 14 -17 25
-20 10 -4 19 -12 19 -20 0 -7 7 -16 16 -19 12 -5 11 1 -5 28 -28 44 -27 56 2
22 36 -42 83 -137 97 -196 7 -30 16 -67 21 -82 11 -37 5 -35 -20 6 -12 18 -44
56 -71 82 -49 48 -78 62 -72 37 1 -7 -2 -13 -8 -13 -5 0 -10 7 -10 16 0 8 -3
13 -8 10 -4 -2 -34 13 -67 35 -33 22 -77 42 -97 46 -21 3 -38 11 -38 17 0 6
-5 4 -11 -4 -9 -12 -10 -12 -5 3 3 10 6 31 7 45 l1 27 8 -25 c8 -25 8 -25 9 4
1 28 2 28 42 22 23 -4 54 -16 69 -26 41 -29 53 -26 48 14 -2 21 0 32 6 29 5
-4 7 1 3 10 -4 11 -2 14 9 10 7 -3 14 -9 14 -15 0 -5 5 -6 11 -3 6 4 -3 17
-22 31 -18 13 -29 24 -23 24 5 0 27 -14 47 -31z m547 1 c0 -5 -4 -10 -10 -10
-5 0 -10 -7 -10 -15 0 -8 5 -15 10 -15 6 0 10 5 10 10 0 6 5 10 11 10 5 0 7
-5 3 -12 -13 -20 -15 -68 -3 -68 6 0 25 11 43 25 70 53 127 39 130 -31 1 -41
1 -41 -57 -43 -21 -1 -57 -17 -100 -46 -55 -36 -68 -42 -75 -29 -6 12 -18 5
-61 -33 -30 -27 -65 -64 -78 -83 l-24 -35 7 50 c13 92 75 222 134 280 17 17
36 35 43 42 15 15 27 16 27 3z m1179 -456 c71 -60 134 -125 172 -176 33 -44
58 -82 56 -84 -2 -2 -28 9 -58 26 -30 16 -68 30 -86 30 -22 0 -33 6 -38 19 -6
19 -86 143 -149 229 -58 79 -24 65 103 -44z m-2829 67 c0 -4 -14 -26 -31 -47
-53 -66 -135 -179 -148 -202 -7 -13 -21 -22 -35 -22 -13 0 -53 -15 -89 -33
l-66 -33 24 40 c41 68 145 176 235 242 81 60 110 75 110 55z m830 -82 c68 -20
80 -18 60 6 -18 21 -7 19 58 -14 62 -31 132 -88 132 -105 0 -6 -7 -2 -15 8
-25 33 -17 9 18 -52 31 -55 32 -60 32 -172 0 -63 -4 -160 -9 -214 l-9 -99 -24
47 c-26 50 -50 68 -64 45 -33 -57 -34 -57 -69 42 -39 110 -87 166 -166 193
-63 21 -110 20 -234 -5 -74 -15 -118 -19 -158 -14 l-55 7 119 40 c142 48 236
57 334 34 l65 -15 -45 41 c-59 54 -191 117 -274 131 -36 6 -66 14 -66 18 0 12
122 30 217 32 50 1 89 5 85 9 -4 4 -31 18 -59 33 -29 14 -53 28 -53 31 0 9
116 -8 180 -27z m1229 17 c-2 -2 -31 -18 -64 -35 l-60 -31 94 0 c86 0 227 -17
218 -26 -2 -2 -39 -14 -83 -27 -93 -27 -192 -80 -255 -136 l-44 -40 60 20 c87
31 197 23 335 -24 58 -19 119 -39 135 -43 28 -7 26 -8 -25 -15 -60 -9 -69 -8
-208 23 -201 45 -307 -8 -382 -190 l-33 -81 -23 24 c-13 14 -27 25 -32 25 -5
0 -23 -26 -40 -57 l-31 -58 -1 45 c0 25 -5 74 -11 110 -16 95 -13 227 6 280 8
24 30 66 47 92 17 27 28 51 25 55 -6 6 42 41 101 74 33 19 46 7 20 -19 -6 -6
13 -2 42 9 63 24 229 44 209 25z m-412 -145 c-33 -49 -48 -61 -27 -19 11 21
50 68 56 68 1 0 -12 -22 -29 -49z m-1743 -83 c-74 -94 -198 -226 -243 -260
l-54 -41 26 44 c44 73 168 217 196 228 14 5 40 21 56 34 36 30 45 27 19 -5z
m3051 -158 c28 -36 62 -81 75 -100 l24 -35 -39 29 c-80 58 -105 85 -222 242
-18 24 -33 47 -33 50 0 14 147 -126 195 -186z m-2267 -22 c19 -19 14 -47 -13
-73 l-26 -23 38 9 c21 5 41 9 45 9 3 0 11 15 18 33 l11 32 30 -33 c34 -38 36
-60 8 -95 -49 -64 -176 -50 -214 23 -22 42 -19 63 13 92 40 38 70 46 90 26z
m1318 -22 c3 -13 1 -33 -5 -44 -12 -23 -5 -33 17 -25 25 8 42 34 42 60 0 28
14 29 40 3 29 -29 25 -74 -8 -111 -23 -26 -38 -33 -80 -37 -49 -4 -54 -2 -87
31 -38 38 -43 58 -19 78 8 7 22 25 30 41 19 37 61 39 70 4z m-2120 -78 c-31
-43 -142 -213 -169 -259 l-26 -46 25 0 c37 0 38 -7 12 -55 -24 -43 -73 -163
-101 -248 -12 -36 -16 -40 -16 -19 -1 33 26 194 39 233 6 16 9 31 7 32 -2 2
-21 -13 -43 -34 -76 -70 -76 -70 -60 -26 58 161 158 301 289 405 56 45 66 49
43 17z m559 -28 c51 -63 141 -125 211 -145 30 -8 79 -22 110 -31 58 -16 93
-45 122 -99 19 -37 28 -183 14 -242 -5 -24 -8 -43 -6 -43 2 0 17 26 33 58 34
67 61 153 62 196 0 26 2 28 8 11 8 -19 19 -183 23 -337 1 -37 6 -64 10 -62 4
3 8 16 8 29 0 13 4 27 10 30 5 3 20 38 32 78 30 98 33 67 9 -98 -11 -76 -18
-141 -16 -144 3 -2 5 5 5 16 0 11 7 26 15 33 9 8 15 9 15 2 0 -6 -5 -14 -10
-17 -12 -7 -4 -25 11 -25 6 0 7 5 3 12 -4 7 -3 8 4 4 6 -3 39 5 74 20 77 32
176 41 249 24 66 -15 156 -56 188 -84 23 -20 23 -20 17 -1 -3 11 -12 67 -21
125 -14 99 -30 189 -41 235 -14 56 23 -29 57 -133 l37 -113 6 43 c7 51 25 278
26 327 0 47 7 36 31 -49 20 -72 44 -127 73 -165 14 -18 14 -17 6 20 -13 56
-12 185 1 226 16 46 54 96 87 113 15 7 63 23 107 35 44 12 98 33 121 46 40 23
105 88 134 133 13 21 20 23 54 17 60 -12 208 -118 329 -238 119 -117 126 -116
67 11 -16 34 -25 62 -20 62 14 0 77 -92 124 -181 60 -114 125 -332 83 -279
-18 23 -67 55 -110 73 -37 16 -37 16 -26 -5 34 -64 -46 -353 -133 -481 l-24
-36 4 58 c4 55 -13 139 -26 127 -3 -3 -18 -35 -33 -71 -15 -36 -53 -101 -85
-145 -59 -82 -187 -220 -204 -220 -6 0 -10 -5 -10 -11 0 -12 43 12 111 64 46
34 50 36 44 15 -16 -55 -79 -175 -142 -270 -37 -57 -69 -106 -71 -109 -7 -15
133 63 174 96 24 20 44 34 44 31 0 -3 -11 -30 -24 -61 -24 -53 -126 -167 -186
-208 -14 -10 0 -5 30 9 60 29 237 130 258 146 7 6 15 9 18 6 7 -8 -29 -99 -60
-152 -36 -62 -172 -185 -293 -267 l-103 -68 -689 -1 -690 0 -118 79 c-166 111
-262 209 -320 329 -25 51 -43 95 -40 98 3 3 50 -23 104 -59 54 -35 130 -81
168 -102 l70 -38 -40 34 c-76 64 -144 141 -169 192 -14 28 -24 52 -22 54 2 3
26 -11 53 -30 52 -37 153 -91 153 -81 0 3 -20 33 -44 67 -75 105 -146 241
-171 327 -6 22 -5 23 6 9 16 -18 156 -119 165 -119 4 0 -33 42 -82 93 -101
104 -200 237 -233 312 -21 47 -23 49 -36 31 -21 -28 -29 -103 -17 -145 10 -32
10 -34 -3 -17 -71 95 -152 338 -158 472 l-2 62 -35 -21 c-19 -11 -52 -34 -72
-50 -43 -32 -44 -29 -22 55 36 141 126 320 190 378 24 22 26 22 20 5 -4 -11
-21 -55 -36 -98 l-29 -78 71 76 c129 138 310 275 363 275 6 0 28 -23 50 -50z
m2549 -121 c20 -22 53 -66 73 -97 39 -60 105 -204 97 -211 -2 -3 -23 13 -47
35 -78 74 -79 74 -53 -2 25 -72 52 -221 42 -232 -3 -3 -6 0 -6 7 0 15 -63 186
-97 263 -18 41 -23 65 -18 85 l7 28 19 -24 c11 -13 22 -22 24 -19 7 7 -112
190 -197 303 -27 36 103 -77 156 -136z m1657 -35 c214 -63 346 -292 311 -540
-7 -46 -15 -90 -18 -97 -3 -9 14 -19 58 -31 173 -48 275 -151 308 -310 20 -99
-10 -213 -78 -288 -76 -85 -18 -80 -946 -82 -451 -2 -833 -1 -847 2 -22 3 -29
13 -42 56 -8 28 -42 144 -76 257 -34 113 -61 210 -61 214 0 4 37 5 83 2 l83
-7 0 83 c-1 70 3 90 27 138 66 135 226 220 389 206 123 -10 237 -79 282 -169
43 -85 31 -170 -31 -233 -23 -22 -24 -25 -7 -25 43 0 149 22 176 36 51 27 108
85 143 149 41 72 42 80 14 65 -30 -16 -102 -14 -136 4 -39 19 -89 77 -109 124
-9 21 -16 65 -16 102 -1 238 252 414 493 344z m-6301 -86 c141 -65 220 -215
179 -339 -16 -47 -54 -96 -89 -114 -38 -19 -100 -19 -128 1 -20 14 -22 14 -22
-4 0 -31 56 -100 100 -122 22 -11 61 -23 87 -26 27 -3 60 -7 74 -9 24 -4 28 0
33 30 8 40 47 90 87 110 15 8 54 15 87 15 147 0 272 -131 272 -287 0 -51 1
-52 23 -44 53 20 134 23 198 7 60 -16 144 -61 169 -91 9 -10 -3 -56 -50 -199
l-61 -185 -637 -3 c-731 -3 -786 -1 -869 36 -273 125 -291 495 -31 626 34 16
74 30 91 30 24 0 28 3 22 18 -49 117 -59 254 -26 343 41 108 127 190 234 225
66 22 190 13 257 -18z m1162 -619 c-9 -23 -18 -23 -46 -4 -17 13 -16 14 10 18
16 2 32 5 36 6 4 0 4 -8 0 -20z m3563 -214 c21 -49 68 -175 106 -280 37 -104
83 -234 103 -287 20 -54 33 -98 30 -98 -2 0 -30 19 -61 43 -30 23 -64 48 -73
55 -16 12 -14 0 11 -80 28 -91 51 -172 63 -233 5 -25 4 -28 -6 -14 -7 9 -38
43 -68 75 l-55 60 4 -112 c8 -276 -111 -554 -378 -886 -57 -71 -107 -130 -112
-134 -10 -6 -9 46 2 61 10 15 184 363 207 415 11 25 30 74 42 110 12 36 25 74
30 85 4 11 15 45 24 75 44 149 59 199 72 240 21 62 50 176 59 228 7 44 13 50
33 30 9 -9 12 5 13 63 1 40 0 86 -1 102 -2 31 6 33 38 11 12 -8 22 -11 22 -5
0 5 -15 58 -34 118 -70 223 -131 470 -113 453 3 -3 22 -45 42 -95z m-3420
-111 c-25 -99 -61 -223 -80 -276 -18 -54 -30 -98 -27 -98 4 0 16 7 26 15 11 8
23 15 28 15 4 0 8 -46 8 -101 0 -90 2 -100 15 -89 9 7 18 11 20 8 3 -3 12 -38
21 -79 39 -190 191 -646 256 -769 185 -347 204 -390 179 -390 -14 0 -61 60
-61 78 0 13 -2 14 -9 4 -17 -28 -259 324 -327 477 -79 175 -104 282 -104 438
l0 108 -61 -63 c-34 -34 -63 -61 -65 -60 -5 5 61 252 74 275 28 51 11 52 -54
3 -66 -49 -84 -58 -84 -42 0 5 45 130 101 278 102 274 178 458 186 451 2 -3
-17 -85 -42 -183z m-1925 -556 c0 -5 6 -8 13 -7 6 2 32 -1 57 -6 25 -5 251 -8
502 -7 l457 1 -4 -21 c-10 -52 -149 -218 -182 -218 -7 0 -13 -4 -13 -10 0 -5
-4 -10 -10 -10 -5 0 -10 7 -10 15 0 8 -9 20 -20 27 -11 7 -20 18 -20 25 0 17
8 16 27 -2 16 -17 49 -16 46 1 -1 6 11 10 28 9 36 -2 38 8 4 23 -17 8 -25 20
-25 36 0 19 -6 25 -35 30 -19 4 -35 11 -35 16 0 6 -20 10 -45 10 -33 0 -45 -4
-45 -15 0 -11 -11 -15 -40 -15 l-40 0 0 -90 0 -90 -40 0 c-22 0 -40 5 -40 10
0 6 -21 10 -46 10 -33 0 -43 -3 -38 -12 6 -10 4 -10 -7 0 -7 6 -28 12 -47 12
-28 0 -32 -3 -23 -14 16 -19 3 -50 -14 -36 -7 6 -25 8 -39 4 -27 -6 -37 9 -13
20 6 3 2 3 -10 0 -24 -6 -32 11 -10 19 6 3 2 6 -10 6 -18 1 -23 -4 -23 -25 0
-14 -4 -23 -10 -19 -5 3 -7 12 -3 20 3 8 1 15 -5 15 -12 0 -23 -38 -12 -45 4
-3 6 -15 4 -28 -2 -12 -2 -16 2 -9 3 6 13 12 22 12 11 0 13 -3 6 -8 -6 -4 -18
-20 -26 -36 -15 -29 -16 -29 -22 -8 -4 12 -14 29 -22 37 -14 13 -14 15 1 15
13 0 16 7 12 36 -5 34 -17 60 -17 35 0 -7 -5 -9 -10 -6 -14 9 -40 -19 -40 -43
0 -11 5 -22 12 -24 8 -3 8 -12 -3 -36 -8 -18 -17 -32 -21 -32 -7 0 -12 26 -11
58 1 6 -7 12 -17 12 -13 0 -17 -5 -13 -20 3 -11 1 -20 -4 -20 -6 0 -13 25 -16
56 -7 70 -21 87 -24 31 -2 -23 -7 -43 -13 -45 -13 -5 -13 -22 -1 -22 5 0 13 9
16 21 4 11 8 19 10 17 2 -2 -3 -23 -11 -47 -8 -24 -13 -46 -10 -48 3 -3 8 7
12 21 5 21 9 24 20 15 11 -9 11 -13 -2 -26 -13 -13 -13 -18 -1 -32 8 -9 12
-21 10 -28 -3 -8 6 -10 26 -7 25 4 30 2 25 -10 -4 -11 0 -16 11 -16 9 0 13 5
10 11 -4 6 3 17 14 26 14 9 20 21 16 34 -3 10 -8 28 -11 39 -8 29 14 25 28 -5
6 -13 18 -25 26 -27 13 -3 13 -6 -4 -22 -13 -14 -15 -21 -6 -24 6 -2 12 -8 12
-14 0 -5 -10 -6 -22 -2 -21 6 -22 5 -8 -12 8 -10 11 -16 6 -12 -8 7 -46 -32
-46 -46 0 -3 11 -6 25 -6 14 0 25 -4 25 -8 0 -7 -53 -74 -87 -110 -23 -24 -14
-30 29 -21 71 16 75 9 29 -48 -52 -67 -68 -68 -76 -5 -4 26 -8 54 -11 62 -2 8
-4 18 -4 22 -1 4 -7 22 -14 40 -8 18 -19 67 -26 108 -6 41 -18 102 -26 135
-11 51 -54 365 -54 401 0 6 11 12 25 12 14 0 25 -5 25 -10z m1509 -71 c0 -36
-3 -46 -8 -32 -8 20 -6 -125 3 -240 3 -33 3 -53 0 -45 -3 8 -10 24 -15 35 -5
11 -15 70 -23 130 -8 63 -14 92 -15 68 -1 -31 -5 -43 -16 -43 -11 0 -15 11
-15 42 0 23 -3 39 -6 35 -3 -3 -6 -21 -6 -41 0 -34 -1 -35 -39 -34 -31 0 -39
4 -39 19 0 10 9 23 20 29 11 6 20 17 20 25 0 8 -9 19 -20 25 -14 7 -20 7 -20
0 0 -5 -20 -10 -44 -10 l-45 0 6 -35 c5 -31 3 -35 -14 -32 -11 1 -28 11 -37
20 -10 9 -22 15 -27 12 -5 -4 -6 2 -3 12 5 17 5 17 -9 0 -16 -19 -34 -7 -21
15 4 6 3 8 -3 5 -5 -3 -17 8 -27 24 -14 24 -15 34 -7 42 9 9 17 6 31 -13 11
-14 20 -20 20 -14 0 6 -7 17 -15 24 -8 7 -15 15 -15 19 0 3 88 7 195 8 l195 2
-1 -52z m4691 47 c0 -31 -140 -229 -147 -207 -5 14 -45 4 -60 -16 -11 -15 -12
-14 -13 0 0 23 19 36 63 42 21 3 40 7 41 8 2 2 -6 18 -16 34 -18 27 -19 21 -3
-18 4 -8 -4 -13 -20 -15 -19 -1 -28 4 -34 21 -5 12 -11 21 -15 20 -17 -7 -26
-1 -26 17 0 17 -7 20 -40 20 -36 0 -40 -2 -40 -25 0 -33 -16 -32 -33 2 l-15
27 -5 -40 c-4 -21 -9 -76 -13 -121 -6 -86 -18 -99 -31 -35 l-7 37 -7 -30 c-4
-16 -8 -48 -10 -70 -2 -22 -6 46 -9 150 -3 105 -4 193 -2 198 3 7 442 9 442 1z
m855 -8 c73 -3 102 -2 75 3 -36 6 -22 8 68 9 l112 2 0 -30 c0 -51 -21 -184
-33 -209 -6 -13 -11 -37 -10 -55 2 -27 1 -26 -8 9 -6 22 -8 67 -6 100 4 43 2
53 -4 36 -12 -31 -18 -24 -23 30 -2 24 -4 47 -5 51 -1 3 -10 4 -21 1 -11 -3
-20 -1 -20 3 0 5 -44 6 -97 3 -54 -4 -110 -7 -125 -8 -27 -1 -28 -3 -28 -60
l0 -58 -61 -7 c-92 -9 -179 -7 -179 4 0 6 -18 10 -40 10 l-40 0 0 -50 0 -50
-40 0 c-30 0 -40 -4 -40 -16 0 -21 -19 -7 -30 22 -5 13 -17 24 -27 24 -9 0
-27 10 -40 22 -13 12 -23 16 -23 10 0 -7 5 -12 12 -12 6 0 8 -3 5 -7 -10 -10
-78 59 -73 74 3 7 -1 10 -8 7 -15 -6 -81 87 -91 128 l-6 25 343 -3 c189 -1
397 -5 463 -8z m122 -118 c-3 -7 -5 -2 -5 12 0 14 2 19 5 13 2 -7 2 -19 0 -25z
m-5974 -53 c4 -25 4 -25 -13 -8 -17 18 -17 33 -1 33 5 0 11 -11 14 -25z m40
-1 c8 -9 -11 -44 -24 -44 -6 0 -3 7 6 16 13 14 14 19 3 25 -7 5 -8 9 -2 9 6 0
14 -3 17 -6z m4672 -4 c-3 -5 -10 -10 -16 -10 -5 0 -9 5 -9 10 0 6 7 10 16 10
8 0 12 -4 9 -10z m1095 0 c0 -13 -11 -13 -30 0 -12 8 -11 10 8 10 12 0 22 -4
22 -10z m-5613 -32 c-3 -8 -6 -5 -6 6 -1 11 2 17 5 13 3 -3 4 -12 1 -19z
m4633 -12 c0 -3 -4 -8 -10 -11 -5 -3 -10 -1 -10 4 0 6 5 11 10 11 6 0 10 -2
10 -4z m-91 -22 c6 -6 -1 -11 -26 -18 -19 -6 -23 -4 -23 14 0 18 4 20 23 14
12 -3 24 -8 26 -10z m1069 1 c4 -3 -47 -55 -54 -55 -2 0 3 11 12 25 9 14 12
25 6 25 -6 0 -16 -8 -21 -17 -6 -10 -11 -14 -11 -9 0 5 -7 3 -15 -4 -12 -10
-16 -9 -22 5 -10 27 22 45 65 38 21 -3 38 -7 40 -8z m-1019 -4 c9 -6 5 -8 -13
-8 -14 0 -26 3 -26 8 0 11 21 11 39 0z m423 -14 c24 5 35 1 55 -21 16 -18 23
-34 20 -48 -5 -16 -3 -18 6 -9 6 6 18 11 27 11 13 -1 13 -2 0 -13 -9 -7 -14
-20 -12 -29 2 -11 -3 -18 -12 -18 -8 0 -22 -10 -30 -22 -9 -12 -22 -23 -31
-24 -12 -2 -11 3 5 23 31 40 23 87 -9 49 -7 -8 -21 -12 -34 -9 -22 6 -22 6 -2
-14 11 -11 26 -18 34 -15 9 3 12 1 7 -6 -4 -7 -11 -12 -17 -12 -15 0 -71 62
-105 117 l-31 50 49 -8 c28 -5 63 -5 80 -2z m-5588 -18 c-10 -5 6 -6 36 -2 30
3 57 10 58 14 6 16 20 9 25 -12 4 -13 10 -18 17 -14 9 6 9 3 2 -11 -17 -29
-71 -89 -82 -90 -23 -3 -25 -5 -14 -12 8 -5 6 -13 -6 -25 -17 -17 -17 -16 -13
10 3 15 6 42 6 60 1 17 6 29 10 26 5 -3 6 -11 3 -18 -5 -13 22 -30 32 -20 3 3
-1 5 -8 5 -9 0 -7 7 6 22 17 19 17 21 2 15 -11 -4 -17 -2 -15 6 1 7 -12 13
-33 15 -19 2 -38 8 -41 14 -11 18 1 37 19 31 13 -6 13 -8 -4 -14z m151 11 c3
-5 -1 -10 -10 -10 -9 0 -13 5 -10 10 3 6 8 10 10 10 2 0 7 -4 10 -10z m149
-11 c-3 -5 2 -9 11 -9 9 0 13 5 10 10 -5 9 15 15 38 11 5 -1 30 -2 58 -2 39
-1 49 -5 49 -18 0 -9 -5 -22 -12 -29 -9 -9 -9 -12 3 -12 10 -1 9 -5 -5 -15
-18 -13 -22 -13 -43 7 -19 18 -27 20 -42 11 -14 -9 -22 -9 -32 0 -10 9 -10 8
1 -6 10 -13 21 -16 42 -12 21 5 30 2 34 -10 4 -9 3 -19 -1 -23 -4 -4 -10 -1
-12 6 -3 6 -9 12 -14 12 -7 0 1 -21 19 -50 2 -2 7 2 11 9 6 9 9 5 9 -12 0 -25
-1 -25 -41 14 -39 40 -107 125 -107 134 0 2 7 2 15 -1 8 -4 12 -10 9 -15z
m5029 -10 c-10 -17 -39 -50 -64 -74 -26 -24 -44 -47 -40 -52 3 -4 -3 -1 -13 7
-18 13 -19 13 -14 -2 7 -17 -19 -48 -40 -48 -7 0 -12 14 -12 30 0 31 16 36 35
12 7 -9 10 -3 10 22 0 19 -3 32 -7 30 -4 -3 -12 4 -18 15 -12 23 0 34 27 25
15 -5 15 -4 3 5 -8 6 -23 8 -32 5 -12 -3 -18 0 -18 10 0 10 9 17 23 17 21 2
21 2 -3 8 -15 3 9 8 60 12 47 3 93 6 103 7 17 2 17 1 0 -29z m851 6 c-4 -8
-11 -15 -16 -15 -6 0 -5 6 2 15 7 8 14 15 16 15 2 0 1 -7 -2 -15z m-6729 -25
c-3 -5 -11 -10 -16 -10 -6 0 -7 5 -4 10 3 6 11 10 16 10 6 0 7 -4 4 -10z m70
0 c3 -5 1 -10 -4 -10 -6 0 -11 5 -11 10 0 6 2 10 4 10 3 0 8 -4 11 -10z m104
-22 c0 -18 -3 -27 -6 -20 -2 6 -12 12 -21 13 -11 0 -12 2 -4 6 6 2 12 11 12
19 0 8 5 14 10 14 6 0 10 -15 9 -32z m5467 -6 c-18 -18 -31 -10 -23 12 4 10
13 13 22 9 15 -5 15 -7 1 -21z m979 18 c-3 -5 -15 -15 -26 -20 -16 -9 -19 -7
-19 10 0 15 7 20 26 20 14 0 22 -4 19 -10z m-6530 -22 c-7 -23 -7 -23 8 -3 9
11 18 17 22 14 3 -4 -2 -14 -11 -23 -19 -20 -38 -8 -28 17 9 25 16 20 9 -5z
m995 2 c-19 -13 -30 -13 -30 0 0 6 10 10 23 10 18 0 19 -2 7 -10z m5680 2 c0
-5 7 -17 16 -28 15 -18 15 -18 9 10 -5 26 -4 27 10 13 19 -19 19 -25 1 -43
-12 -12 -17 -9 -35 21 -11 19 -16 35 -11 35 6 0 10 -4 10 -8z m-130 -27 c0
-16 -28 -40 -37 -31 -4 4 -2 11 5 15 7 4 10 15 6 24 -5 13 -2 16 10 11 9 -3
16 -12 16 -19z m263 -30 l6 -50 -14 34 c-9 19 -13 43 -9 53 8 26 10 21 17 -37z
m-6762 2 c-6 -6 -7 -16 -3 -22 4 -6 -1 -2 -10 8 -19 20 -25 42 -9 32 5 -3 13
0 17 7 6 9 9 9 12 -1 2 -7 -1 -18 -7 -24z m6469 -23 c0 -2 -7 -4 -15 -4 -8 0
-15 4 -15 10 0 5 7 7 15 4 8 -4 15 -8 15 -10z m351 -13 c12 -13 14 -23 7 -36
-6 -10 -12 -45 -14 -79 -2 -33 -8 -62 -14 -64 -6 -2 -8 -7 -5 -12 6 -10 -25
-151 -37 -164 -9 -12 -55 30 -81 73 l-17 30 45 -4 c33 -3 47 1 54 12 11 20 2
55 -18 70 -9 6 -12 15 -8 19 4 5 12 3 16 -5 6 -10 10 -9 14 4 4 9 3 13 -3 10
-6 -3 -10 -2 -10 4 0 5 6 12 13 14 9 4 9 6 0 6 -7 1 -24 -11 -39 -26 -19 -20
-25 -23 -20 -10 4 14 0 20 -14 24 -32 9 -23 19 18 21 70 2 72 2 72 28 0 13 4
24 10 24 6 0 6 9 0 25 -9 24 -4 55 9 55 4 0 14 -8 22 -19z m-5921 -6 c19 -23
8 -25 -14 -4 -11 11 -15 19 -9 19 6 0 16 -7 23 -15z m3300 -75 c40 -50 71 -92
69 -93 -2 -1 -67 0 -144 4 -77 3 -116 6 -87 7 51 2 52 3 41 25 -7 12 -18 26
-25 30 -23 13 -17 47 9 48 21 1 21 1 -3 9 -34 11 -1620 12 -1620 1 0 -4 -11
-6 -25 -3 -19 3 -24 1 -20 -11 4 -9 -4 -23 -20 -35 -14 -11 -24 -26 -23 -34 2
-9 -13 -15 -47 -19 -43 -5 -38 -6 34 -7 46 -1 82 -4 80 -6 -2 -2 -55 -6 -116
-9 l-113 -5 20 25 c10 13 43 53 72 88 l53 64 895 3 c492 2 896 4 897 6 1 1 34
-39 73 -88z m-3780 50 c0 -5 -5 -10 -11 -10 -5 0 -7 5 -4 10 3 6 8 10 11 10 2
0 4 -4 4 -10z m-443 -41 c-11 -18 -12 -18 -24 4 -18 32 -16 38 11 26 21 -10
23 -14 13 -30z m6530 9 c-30 -46 -59 -70 -70 -59 -7 7 -4 18 8 37 9 14 12 24
7 20 -6 -3 -13 -3 -16 2 -5 9 9 12 52 13 12 1 22 6 22 12 0 6 3 7 6 4 4 -4 0
-17 -9 -29z m-5383 14 c3 -5 -1 -9 -9 -9 -8 0 -12 4 -9 9 3 4 7 8 9 8 2 0 6
-4 9 -8z m4960 -17 c-4 -8 -10 -13 -15 -10 -4 3 -6 12 -3 20 4 8 10 13 15 10
4 -3 6 -12 3 -20z m679 -3 c-10 -27 -43 -44 -43 -22 0 6 7 10 16 10 10 0 14 6
11 14 -6 16 2 28 14 20 4 -2 5 -12 2 -22z m-1654 -74 c51 -157 82 -345 80
-498 l-1 -85 -44 130 c-35 104 -44 143 -44 200 0 38 -7 124 -15 190 -24 189
-21 197 24 63z m-5109 62 c-6 -11 -13 -20 -16 -20 -2 0 0 9 6 20 6 11 13 20
16 20 2 0 0 -9 -6 -20z m1371 -134 c-6 -43 -11 -116 -11 -161 0 -87 -28 -206
-69 -295 l-21 -45 4 135 c6 154 34 321 73 442 27 80 28 82 31 44 2 -22 -1 -76
-7 -120z m-154 128 c-3 -3 -12 -4 -19 -1 -8 3 -5 6 6 6 11 1 17 -2 13 -5z
m4007 -1 c-5 -5 -12 -12 -16 -18 -4 -6 -8 -2 -8 8 0 9 7 17 17 17 9 0 12 -3 7
-7z m53 -19 c-3 -3 -12 -4 -19 -1 -8 3 -5 6 6 6 11 1 17 -2 13 -5z m-4049 -11
c-10 -2 -26 -2 -35 0 -10 3 -2 5 17 5 19 0 27 -2 18 -5z m3989 -25 c-3 -8 -6
-5 -6 6 -1 11 2 17 5 13 3 -3 4 -12 1 -19z m-4741 -33 c-19 -25 -35 -35 -54
-35 -21 0 -24 2 -12 10 11 7 3 10 -30 11 l-45 2 40 7 c37 7 37 7 10 10 l-30 2
35 9 c19 4 41 6 48 4 8 -3 10 0 6 7 -5 7 0 9 14 6 12 -4 25 -2 28 4 3 5 8 7
11 4 3 -3 -6 -21 -21 -41z m760 33 c5 -7 3 -8 -6 -3 -9 5 -10 1 -6 -16 l7 -24
-14 23 c-7 12 -16 19 -20 16 -4 -4 -7 -2 -7 4 0 15 37 16 46 0z m4735 -3 c5 4
6 -1 2 -10 -5 -13 -7 -14 -14 -3 -5 7 -8 18 -8 23 0 6 3 4 6 -3 2 -6 9 -10 14
-7z m-331 -5 c0 -3 -29 -35 -65 -70 -50 -50 -67 -62 -77 -52 -6 6 -8 15 -4 19
4 4 10 2 14 -4 5 -9 11 -6 20 7 8 13 8 20 2 20 -7 0 -7 6 0 20 14 25 45 28 35
3 -4 -13 -3 -15 5 -7 13 13 3 44 -13 40 -7 -1 -9 -1 -5 1 4 3 10 4 13 3 3 0
12 5 19 13 13 12 56 18 56 7z m-4732 -17 c-10 -2 -26 -2 -35 0 -10 3 -2 5 17
5 19 0 27 -2 18 -5z m2075 0 c-57 -2 -149 -2 -205 0 -57 1 -11 3 102 3 113 0
159 -2 103 -3z m360 0 c-35 -2 -91 -2 -125 0 -35 2 -7 3 62 3 69 0 97 -1 63
-3z m600 0 c-13 -2 -33 -2 -45 0 -13 2 -3 4 22 4 25 0 35 -2 23 -4z m-2976 -9
c-3 -3 -12 -4 -19 -1 -8 3 -5 6 6 6 11 1 17 -2 13 -5z m5121 -1 c-10 -2 -26
-2 -35 0 -10 3 -2 5 17 5 19 0 27 -2 18 -5z m661 -37 c-3 -3 -11 5 -18 17 -13
21 -12 21 5 5 10 -10 16 -20 13 -22z m-724 -6 c3 -6 -1 -7 -9 -4 -18 7 -21 14
-7 14 6 0 13 -4 16 -10z m-5605 -4 c0 -2 -7 -7 -16 -10 -8 -3 -12 -2 -9 4 6
10 25 14 25 6z m481 -13 c13 -16 12 -17 -3 -4 -17 13 -22 21 -14 21 2 0 10 -8
17 -17z m4383 2 c3 -9 0 -15 -9 -15 -8 0 -15 7 -15 15 0 8 4 15 9 15 5 0 11
-7 15 -15z m1131 -25 c-3 -5 -1 -10 4 -10 6 0 11 5 11 10 0 6 4 10 10 10 5 0
7 -7 4 -15 -4 -8 -15 -15 -26 -15 -12 0 -27 -8 -35 -17 -8 -10 -12 -12 -8 -5
3 7 0 12 -8 12 -7 0 -14 7 -14 15 0 8 4 12 9 9 4 -3 8 0 8 5 0 6 12 11 26 11
14 0 23 -4 19 -10z m-1129 -10 c8 0 14 -4 14 -8 0 -5 -13 -7 -30 -4 -16 2 -30
9 -30 14 0 6 7 7 16 4 9 -3 22 -6 30 -6z m209 -19 c3 -5 2 -12 -3 -15 -5 -3
-9 1 -9 9 0 17 3 19 12 6z m-1321 -59 c-25 -22 -35 -44 -48 -105 l-17 -77
-975 0 -974 0 -1 23 c-3 145 -3 179 0 183 2 2 464 4 1025 4 l1020 0 -30 -28z
m-3134 -36 c0 -2 -8 -10 -17 -17 -16 -13 -17 -12 -4 4 13 16 21 21 21 13z
m-1320 -21 c-7 -9 -15 -13 -19 -10 -3 3 1 10 9 15 21 14 24 12 10 -5z m739 -2
c-38 -47 -99 -106 -93 -90 3 9 11 17 16 17 6 0 8 7 5 14 -4 10 -1 13 9 9 7 -3
14 0 14 6 0 6 -7 11 -16 11 -8 0 -12 5 -9 10 3 6 1 10 -4 10 -6 0 -11 4 -11 8
0 9 41 8 57 -1 6 -4 16 0 23 8 7 8 15 15 17 15 3 0 -1 -8 -8 -17z m5121 13 c0
-2 -7 -7 -16 -10 -8 -3 -12 -2 -9 4 6 10 25 14 25 6z m-60 -10 c0 -3 -7 -12
-16 -20 -8 -9 -11 -16 -5 -16 5 0 13 5 16 10 3 6 12 10 18 10 7 0 -1 -12 -16
-25 -15 -14 -33 -25 -40 -24 -8 0 -7 3 2 6 10 4 10 7 1 13 -9 5 -6 13 11 29
23 21 29 25 29 17z m868 -34 c-22 -27 -24 -28 -45 -13 -21 16 -21 16 0 19 16
3 17 6 6 13 -10 6 -2 9 24 9 l39 0 -24 -28z m-4887 -270 c21 -68 39 -127 39
-130 0 -19 -55 78 -77 136 -26 70 -53 196 -52 247 1 21 8 6 26 -50 14 -44 42
-136 64 -203z m3539 171 c-13 -93 -51 -204 -90 -261 -35 -51 -34 -48 4 78 15
47 36 125 47 174 23 102 28 115 40 93 5 -9 5 -45 -1 -84z m1300 53 c0 -2 -6
-9 -14 -15 -11 -9 -16 -9 -22 0 -4 7 -3 9 4 5 6 -3 13 -2 17 4 6 10 15 14 15
6z m-980 -163 c58 -95 141 -337 140 -407 -1 -18 -3 -17 -17 9 -19 36 -66 98
-106 141 -26 29 -27 33 -11 42 16 9 16 13 0 83 -10 41 -33 112 -52 158 -30 77
-31 82 -9 55 13 -16 38 -52 55 -81z m-4211 45 c-33 -84 -57 -162 -65 -214 -6
-45 -6 -48 10 -35 34 29 22 3 -35 -72 -33 -43 -71 -100 -85 -125 -24 -47 -24
-47 -18 -12 14 84 57 239 82 300 27 62 116 210 127 210 2 0 -5 -24 -16 -52z
m-1026 -3 c-9 -15 -11 -15 -24 1 -12 16 -12 17 4 11 10 -4 17 -2 17 5 0 6 3 9
6 5 3 -3 2 -13 -3 -22z m57 15 c0 -5 -5 -10 -11 -10 -5 0 -7 5 -4 10 3 6 8 10
11 10 2 0 4 -4 4 -10z m6176 -1 c8 -13 -55 -91 -68 -83 -6 4 -6 9 -2 13 10 7
15 43 5 37 -3 -2 -11 5 -17 17 -9 21 -7 22 33 24 24 1 45 -3 49 -8z m-6025
-126 c13 -16 12 -17 -3 -4 -17 13 -22 21 -14 21 2 0 10 -8 17 -17z m3863 -12
c3 -5 -8 -14 -24 -21 -30 -13 -38 -28 -60 -128 -10 -42 -18 -55 -37 -63 -14
-5 -410 -9 -969 -9 l-944 0 0 115 0 115 1014 0 c577 0 1017 -4 1020 -9z
m-3899 -40 c3 -5 2 -12 -3 -15 -5 -3 -9 1 -9 9 0 17 3 19 12 6z m5921 -16 c9
-8 24 -15 35 -15 25 0 24 -12 -2 -36 -20 -18 -21 -18 -54 18 -23 24 -30 38
-22 41 21 9 28 8 43 -8z m-4988 -267 c-3 -74 3 -97 16 -63 6 16 26 21 26 6 0
-5 -34 -61 -76 -123 -82 -120 -115 -186 -196 -387 -59 -149 -84 -228 -103
-335 -8 -43 -17 -81 -20 -84 -8 -9 -5 107 5 188 27 210 99 396 232 601 41 65
52 92 68 174 11 53 20 108 20 122 0 13 4 21 10 18 6 -3 11 0 11 7 5 39 10 -58
7 -124z m4012 103 c0 -9 4 -21 8 -26 5 -6 17 -49 26 -96 15 -73 27 -101 78
-180 148 -233 218 -440 235 -692 7 -115 -10 -131 -21 -20 -7 66 -41 174 -123
393 -55 145 -100 231 -174 330 -99 134 -119 176 -65 135 11 -8 23 -15 26 -15
3 0 3 33 -1 73 -11 103 -11 129 1 122 6 -3 10 -14 10 -24z m-1055 -200 c-3 -5
-18 -12 -34 -16 -22 -5 -31 -14 -35 -33 -3 -15 -11 -55 -17 -90 -6 -34 -15
-64 -18 -67 -4 -2 -437 -6 -963 -9 l-956 -5 -6 22 c-3 12 -6 64 -6 115 l0 92
1021 0 c621 0 1018 -4 1014 -9z m-2367 -199 c114 -36 164 -84 267 -252 37 -60
89 -125 139 -176 76 -76 87 -83 191 -124 122 -48 170 -77 232 -142 56 -58 146
-203 177 -286 33 -89 76 -240 76 -270 l0 -23 -22 25 c-33 36 -76 39 -106 6
-18 -19 -19 -19 -40 49 -26 81 -90 174 -197 286 -75 79 -88 84 -35 15 42 -54
98 -172 120 -252 23 -86 53 -276 45 -288 -3 -5 -18 5 -33 22 -25 26 -32 30
-61 23 -23 -5 -39 -18 -54 -43 l-21 -36 -14 73 c-16 93 -42 143 -133 261 -40
52 -91 119 -112 148 -22 29 -41 51 -43 50 -1 -2 15 -39 37 -83 48 -99 79 -217
79 -305 0 -61 -14 -130 -27 -130 -3 0 -14 11 -25 26 -16 20 -28 24 -57 22 -31
-3 -39 -9 -55 -41 -17 -36 -19 -37 -37 -21 -36 32 -80 112 -128 231 -47 117
-114 247 -132 259 -13 8 -11 -2 9 -44 63 -126 75 -313 25 -391 l-15 -23 -18
30 c-38 61 -97 66 -126 11 l-16 -31 -24 36 c-37 54 -50 100 -84 289 -38 216
-56 294 -88 382 -29 83 -82 190 -110 225 l-20 25 -8 -39 c-10 -57 3 -291 20
-361 9 -33 15 -63 16 -68 0 -10 -79 40 -113 72 -16 14 -36 40 -45 56 l-17 30
-5 -60 -5 -60 -41 38 c-63 57 -96 140 -102 258 -7 140 27 243 118 358 51 64
187 175 255 207 118 55 256 69 363 36z m3086 3 c104 -27 193 -82 292 -180 76
-75 99 -105 135 -179 42 -85 44 -93 47 -195 4 -118 -9 -182 -53 -257 -22 -37
-71 -84 -89 -84 -3 0 -6 26 -6 58 l0 57 -26 -43 c-17 -28 -48 -58 -87 -83 -33
-21 -62 -38 -63 -36 -2 2 4 25 12 52 27 88 38 415 14 415 -5 0 -15 -12 -23
-27 -7 -16 -32 -62 -54 -104 -71 -131 -106 -268 -138 -539 -16 -137 -37 -202
-84 -260 l-19 -25 -7 28 c-12 48 -68 63 -101 26 -10 -11 -24 -33 -30 -47 l-10
-27 -18 28 c-64 97 -60 261 11 401 18 36 21 47 9 37 -23 -20 -120 -206 -141
-271 -22 -71 -71 -162 -100 -190 l-23 -22 -7 21 c-8 25 -52 49 -80 44 -11 -2
-32 -18 -47 -35 l-27 -32 -16 37 c-35 85 -11 267 54 401 22 44 38 82 37 83 -1
1 -52 -65 -114 -147 -115 -151 -149 -215 -172 -322 -12 -53 -30 -70 -30 -28 0
26 -49 62 -79 58 -16 -2 -35 -16 -49 -38 l-25 -35 6 95 c10 164 69 350 143
453 47 66 21 48 -61 -41 -82 -91 -138 -176 -167 -255 -12 -33 -24 -55 -26 -48
-3 10 -53 41 -66 41 -3 0 -21 -14 -41 -31 -23 -21 -35 -26 -35 -16 0 35 65
230 105 315 98 206 189 308 327 362 186 74 250 124 352 280 157 240 172 255
295 297 79 27 189 30 275 8z m-731 -229 c-48 -60 -114 -128 -120 -122 -3 3 -2
6 4 6 6 0 13 7 16 14 10 25 -17 8 -34 -22 -13 -23 -27 -31 -74 -40 -32 -7 -70
-12 -84 -12 -14 0 -44 -7 -66 -14 -33 -12 -149 -15 -613 -16 -506 -1 -575 1
-603 15 -33 18 -145 55 -163 55 -6 0 -28 11 -48 25 -40 27 -53 31 -42 13 4 -7
3 -8 -5 -4 -12 8 -91 112 -91 121 0 3 437 5 971 5 l970 0 -18 -24z m-503 -391
c0 -14 -70 -93 -75 -85 -9 14 -82 12 -89 -2 -5 -10 -7 -10 -12 0 -3 6 -23 12
-44 12 -21 0 -41 -6 -43 -12 -4 -10 -8 -10 -14 -2 -4 6 -18 14 -30 18 -24 8
-63 -22 -63 -49 0 -16 35 -55 49 -55 22 0 41 13 41 29 1 14 2 14 14 -2 11 -14
26 -17 70 -15 63 3 88 -11 66 -37 -11 -13 -54 -15 -314 -15 l-301 0 -44 77
c-25 42 -58 92 -74 110 l-29 33 446 0 c245 0 446 -2 446 -5z m-258 -401 c30
-5 36 -10 29 -23 -5 -9 -14 -41 -21 -71 -7 -30 -16 -57 -21 -60 -4 -3 -85 -5
-181 -5 l-173 0 -11 55 c-6 31 -16 65 -22 77 -7 12 -12 24 -12 27 0 8 365 7
412 0z m-552 -294 c6 -11 14 -43 17 -70 7 -64 -8 -65 -47 -4 -24 39 -27 50
-18 70 14 29 34 31 48 4z m782 -5 c10 -22 7 -31 -19 -67 -43 -60 -58 -62 -50
-6 12 90 45 125 69 73z m-1822 -147 c25 -59 36 -118 20 -118 -22 0 -69 57 -75
93 -15 76 25 93 55 25z m2888 -5 c3 -47 -20 -103 -43 -103 -8 0 -15 -4 -15
-10 0 -5 -5 -10 -11 -10 -16 0 -6 84 14 133 23 53 51 48 55 -10z m-2435 -61
c38 -87 52 -131 43 -139 -9 -9 -78 66 -108 120 -12 20 -25 37 -30 37 -15 0 5
32 26 40 32 12 42 3 69 -58z m343 23 c15 -48 18 -145 5 -145 -11 0 -71 116
-71 137 0 26 21 54 38 51 9 -2 22 -21 28 -43z m1288 29 c17 -43 -9 -119 -54
-159 l-23 -20 5 70 c3 39 11 82 18 98 14 30 44 36 54 11z m386 -4 c26 -26 26
-50 -1 -50 -15 0 -19 -5 -15 -15 3 -8 0 -14 -7 -12 -7 1 -11 -6 -11 -15 1 -10
-1 -16 -5 -15 -3 1 -25 -17 -48 -41 -41 -41 -63 -52 -63 -31 0 6 16 45 35 87
53 114 75 132 115 92z"/>
<path d="M4738 7473 c7 -3 16 -2 19 1 4 3 -2 6 -13 5 -11 0 -14 -3 -6 -6z"/>
<path d="M4911 7414 c0 -11 3 -14 6 -6 3 7 2 16 -1 19 -3 4 -6 -2 -5 -13z"/>
<path d="M4904 7351 c4 -6 16 -16 28 -22 15 -8 18 -8 14 0 -4 6 -16 16 -28 22
-15 8 -18 8 -14 0z"/>
<path d="M5347 7537 c-3 -7 1 -23 8 -36 10 -20 13 -21 18 -6 4 9 1 25 -7 36
-10 15 -15 17 -19 6z m21 -32 c-3 -3 -9 2 -12 12 -6 14 -5 15 5 6 7 -7 10 -15
7 -18z"/>
<path d="M5532 7500 c0 -14 2 -19 5 -12 2 6 2 18 0 25 -3 6 -5 1 -5 -13z"/>
<path d="M5321 7494 c0 -11 3 -14 6 -6 3 7 2 16 -1 19 -3 4 -6 -2 -5 -13z"/>
<path d="M5478 7483 c6 -2 18 -2 25 0 6 3 1 5 -13 5 -14 0 -19 -2 -12 -5z"/>
<path d="M5551 7454 c0 -11 3 -14 6 -6 3 7 2 16 -1 19 -3 4 -6 -2 -5 -13z"/>
<path d="M4264 5878 c3 -18 15 -98 26 -178 39 -271 87 -441 152 -543 17 -26
55 -69 84 -96 42 -36 57 -59 69 -97 44 -149 201 -274 388 -309 100 -19 149
-19 245 1 187 38 330 151 380 299 15 44 32 67 78 109 102 92 163 256 214 576
11 74 27 165 34 203 15 81 8 84 -58 26 -80 -71 -109 -134 -157 -344 -37 -165
-62 -240 -99 -299 -59 -93 -185 -139 -316 -117 -68 12 -144 44 -144 61 0 5 20
18 45 29 78 35 195 126 195 152 0 5 -17 9 -37 9 l-38 0 46 30 c113 74 118 211
9 274 l-33 20 23 -32 c30 -41 22 -48 -23 -22 -58 34 -134 50 -242 50 -108 0
-184 -16 -242 -50 -42 -25 -52 -20 -29 15 14 21 14 25 2 25 -25 0 -75 -59 -82
-96 -15 -82 13 -142 87 -184 l44 -25 -45 -5 -45 -5 56 -55 c32 -32 83 -69 122
-88 37 -18 67 -37 67 -42 0 -17 -77 -49 -145 -60 -118 -19 -217 11 -290 87
-55 57 -97 175 -150 418 -28 133 -82 230 -152 276 -39 26 -46 24 -39 -13z
m693 -430 c7 -14 10 -33 7 -42 -5 -13 -12 -9 -35 20 -16 20 -26 41 -23 46 10
16 38 4 51 -24z m340 16 c3 -10 -4 -26 -20 -42 -23 -23 -27 -24 -33 -9 -7 18
20 67 37 67 5 0 12 -7 16 -16z m-207 -548 c63 0 152 5 198 13 45 7 85 11 89 8
10 -11 -26 -56 -66 -83 -96 -63 -277 -71 -386 -17 -41 21 -95 73 -95 93 0 16
6 16 73 2 39 -8 124 -15 187 -16z"/>
<path d="M3421 4574 c0 -11 3 -14 6 -6 3 7 2 16 -1 19 -3 4 -6 -2 -5 -13z"/>
<path d="M1570 4731 c-13 -25 -13 -171 0 -171 6 0 10 18 10 39 0 22 5 43 10
46 13 8 13 105 0 105 -5 0 -14 -9 -20 -19z"/>
<path d="M1648 4683 c23 -2 61 -2 85 0 23 2 4 4 -43 4 -47 0 -66 -2 -42 -4z"/>
<path d="M1462 4615 c0 -16 2 -22 5 -12 2 9 2 23 0 30 -3 6 -5 -1 -5 -18z"/>
<path d="M1482 4620 c0 -14 2 -19 5 -12 2 6 2 18 0 25 -3 6 -5 1 -5 -13z"/>
<path d="M1502 4610 c0 -19 2 -27 5 -17 2 9 2 25 0 35 -3 9 -5 1 -5 -18z"/>
<path d="M1900 4625 c0 -9 6 -12 15 -9 8 4 15 10 15 15 0 5 -7 9 -15 9 -8 0
-15 -7 -15 -15z"/>
<path d="M1728 4613 c7 -3 16 -2 19 1 4 3 -2 6 -13 5 -11 0 -14 -3 -6 -6z"/>
<path d="M1778 4596 c-4 -22 -2 -23 23 -16 15 5 30 6 33 2 3 -3 6 0 6 6 0 7
-5 12 -11 12 -5 0 -8 4 -5 8 2 4 -6 9 -19 10 -17 1 -24 -5 -27 -22z"/>
<path d="M1502 4355 c0 -16 2 -22 5 -12 2 9 2 23 0 30 -3 6 -5 -1 -5 -18z"/>
<path d="M1540 4302 c0 -18 -5 -41 -12 -51 -9 -14 -8 -23 5 -42 19 -27 21 -22
7 15 -8 21 -6 27 9 35 20 11 21 45 3 63 -9 9 -12 5 -12 -20z"/>
<path d="M1600 4300 c0 -5 7 -7 15 -4 8 4 15 8 15 10 0 2 -7 4 -15 4 -8 0 -15
-4 -15 -10z"/>
<path d="M1550 4236 c0 -9 5 -16 10 -16 6 0 10 4 10 9 0 6 -4 13 -10 16 -5 3
-10 -1 -10 -9z"/>
<path d="M1581 4224 c0 -11 3 -14 6 -6 3 7 2 16 -1 19 -3 4 -6 -2 -5 -13z"/>
<path d="M2571 4785 c0 -5 6 -19 14 -29 8 -11 15 -15 15 -10 0 6 -7 19 -15 30
-8 10 -14 15 -14 9z"/>
<path d="M7247 4803 c6 -4 13 -26 16 -48 4 -40 4 -40 3 4 -1 30 -6 46 -16 48
-10 3 -11 2 -3 -4z"/>
<path d="M7262 4670 c0 -19 2 -27 5 -17 2 9 2 25 0 35 -3 9 -5 1 -5 -18z"/>
<path d="M8160 4738 c0 -14 -9 -18 -40 -18 -33 0 -40 -3 -40 -20 0 -16 7 -20
36 -20 27 0 37 -5 41 -20 5 -18 14 -20 84 -20 l79 0 0 39 0 38 -72 8 c-40 3
-76 12 -80 18 -5 8 -8 6 -8 -5z"/>
<path d="M8738 4656 c-3 -14 -2 -30 2 -36 4 -6 7 5 8 25 2 40 -4 46 -10 11z"/>
<path d="M7895 4630 c-16 -6 -14 -8 13 -7 21 0 41 -8 57 -23 14 -13 28 -21 31
-17 9 8 -6 28 -16 22 -5 -3 -11 4 -15 15 -7 21 -34 25 -70 10z"/>
<path d="M7810 4493 c0 -4 5 -15 10 -23 8 -13 10 -13 10 2 0 9 -4 20 -10 23
-5 3 -10 3 -10 -2z"/>
<path d="M7870 4460 c0 -5 7 -10 16 -10 8 0 12 5 9 10 -3 6 -10 10 -16 10 -5
0 -9 -4 -9 -10z"/>
<path d="M7520 4476 c0 -2 8 -10 18 -17 15 -13 16 -12 3 4 -13 16 -21 21 -21
13z"/>
<path d="M8681 4284 c0 -11 3 -14 6 -6 3 7 2 16 -1 19 -3 4 -6 -2 -5 -13z"/>
<path d="M8652 4190 c0 -14 2 -19 5 -12 2 6 2 18 0 25 -3 6 -5 1 -5 -13z"/>
<path d="M4211 4322 c-7 -13 -11 -26 -8 -28 8 -8 29 25 25 38 -3 8 -9 4 -17
-10z"/>
<path d="M6020 4315 c11 -13 8 -19 -10 -17 -5 1 -6 -44 -1 -58 1 -3 6 3 12 13
6 9 15 15 20 12 5 -4 7 -10 4 -15 -3 -4 3 -7 12 -5 10 1 24 -3 32 -9 8 -6 -3
12 -25 41 -21 28 -43 52 -48 52 -5 1 -3 -6 4 -14z m35 -45 l20 -25 -21 17
c-16 14 -23 15 -33 5 -11 -10 -11 -8 -1 11 6 13 12 22 13 20 1 -1 11 -14 22
-28z"/>
<path d="M4205 4270 c-3 -5 -1 -10 4 -10 6 0 11 5 11 10 0 6 -2 10 -4 10 -3 0
-8 -4 -11 -10z"/>
<path d="M8335 4290 c-3 -5 -1 -10 4 -10 6 0 11 5 11 10 0 6 -2 10 -4 10 -3 0
-8 -4 -11 -10z"/>
<path d="M2313 4193 c0 -7 4 -13 8 -13 4 0 9 6 12 13 3 8 0 14 -7 14 -7 0 -13
-6 -13 -14z"/>
<path d="M7475 4209 c-4 -6 -5 -12 -2 -15 2 -3 7 2 10 11 7 17 1 20 -8 4z"/>
<path d="M5828 3992 c-10 -2 -18 -11 -18 -20 -1 -16 -2 -16 -14 1 -8 10 -27
17 -49 17 -40 0 -54 -22 -43 -66 5 -20 12 -24 46 -24 36 0 40 3 40 25 0 14 5
25 10 25 6 0 10 -11 10 -25 0 -22 4 -25 35 -25 28 0 37 5 45 24 18 48 -10 79
-62 68z"/>
<path d="M5614 3976 c-3 -8 -4 -27 -2 -43 3 -25 7 -28 38 -28 34 0 35 1 38 43
l3 42 -36 0 c-21 0 -38 -6 -41 -14z"/>
<path d="M4770 3580 c-27 -27 -26 -81 0 -105 12 -11 36 -19 55 -19 19 0 43 8
55 19 26 24 27 85 2 108 -26 24 -87 22 -112 -3z"/>
<path d="M5190 3561 c-14 -28 -13 -47 6 -66 17 -17 63 -13 75 6 3 6 11 3 19
-6 18 -22 66 -19 83 5 l14 21 6 -22 c5 -17 11 -20 29 -15 13 3 31 6 41 6 15 0
18 7 15 43 -3 40 -5 42 -38 45 -23 2 -38 -2 -46 -13 -10 -14 -12 -14 -18 0 -8
22 -75 20 -92 -2 -13 -17 -13 -17 -14 0 0 25 -66 24 -80 -2z"/>
<path d="M5496 3558 c-15 -58 7 -83 64 -72 29 6 31 9 28 48 -3 40 -4 41 -44
44 -36 3 -42 0 -48 -20z"/>
<path d="M5607 3574 c-4 -4 -7 -24 -7 -45 0 -33 4 -40 24 -45 14 -3 34 -3 46
1 18 6 21 13 18 48 -3 40 -5 42 -38 45 -20 2 -39 0 -43 -4z"/>
<path d="M5704 3556 c-15 -63 11 -89 69 -67 21 8 27 17 27 39 0 37 -17 52 -57
52 -26 0 -34 -5 -39 -24z"/>
<path d="M5817 3574 c-4 -4 -7 -25 -7 -46 0 -44 17 -56 59 -42 22 8 26 15 26
49 0 39 -1 40 -35 43 -20 2 -39 0 -43 -4z"/>
<path d="M4765 3160 c-24 -26 -22 -78 4 -104 26 -26 83 -27 111 -1 29 26 28
89 -2 109 -32 23 -91 20 -113 -4z"/>
<path d="M5213 3162 c-26 -4 -42 -46 -26 -71 6 -9 26 -17 45 -19 28 -2 37 1
46 20 l11 23 0 -22 c1 -17 7 -23 24 -24 38 -2 52 2 65 19 11 14 12 14 12 -2 0
-14 8 -17 43 -14 42 3 42 3 45 46 l3 42 -40 0 c-22 0 -42 -6 -45 -12 -5 -10
-7 -10 -12 0 -3 7 -25 12 -55 12 -41 0 -48 -2 -43 -17 5 -16 4 -16 -8 -2 -16
19 -37 26 -65 21z"/>
<path d="M5496 3145 c-3 -8 -3 -29 1 -46 5 -28 8 -30 47 -27 41 3 41 3 44 46
l3 42 -44 0 c-31 0 -47 -5 -51 -15z"/>
<path d="M5600 3115 l0 -45 44 0 c41 0 45 2 49 28 l4 27 2 -27 c1 -19 7 -28
24 -30 47 -7 66 3 73 37 3 19 3 38 -1 44 -9 15 -85 14 -85 -1 0 -9 -3 -9 -12
0 -7 7 -31 12 -55 12 l-43 0 0 -45z"/>
<path d="M5810 3115 l0 -45 39 0 c36 0 40 3 46 30 9 40 -8 60 -51 60 -34 0
-34 -1 -34 -45z"/>
<path d="M4778 2765 c-28 -16 -33 -28 -29 -75 4 -55 90 -81 131 -40 25 25 26
81 2 103 -27 24 -73 29 -104 12z"/>
<path d="M5735 2752 c-36 -8 -47 -52 -22 -86 21 -28 77 -13 77 20 0 14 4 22
10 19 6 -3 10 -14 10 -25 0 -22 18 -30 54 -23 29 6 47 36 38 63 -14 43 -77 55
-92 18 -6 -16 -9 -18 -9 -7 -1 18 -33 27 -66 21z"/>
<path d="M5192 2738 c-31 -31 10 -95 51 -82 25 8 38 24 30 38 -3 5 -1 6 5 2 7
-4 12 -14 12 -22 0 -10 13 -14 46 -14 41 0 46 2 41 20 -3 11 -1 18 4 14 5 -3
9 -12 9 -20 0 -10 13 -14 46 -14 l45 0 -3 43 c-3 42 -3 42 -45 45 -33 2 -43 0
-43 -12 0 -8 -5 -18 -10 -21 -6 -4 -10 -3 -9 2 5 26 -4 33 -41 33 -22 0 -40
-4 -40 -10 0 -5 -5 -10 -11 -10 -5 0 -7 5 -4 10 9 14 -68 13 -83 -2z"/>
<path d="M5496 2724 c-12 -48 1 -64 50 -64 l44 0 0 45 0 45 -44 0 c-39 0 -45
-3 -50 -26z"/>
<path d="M5600 2706 c0 -48 14 -58 64 -49 21 4 26 11 26 33 0 16 3 35 6 44 5
13 -2 16 -45 16 l-51 0 0 -44z"/>
</g>
</svg>
